<?xml version="1.0" encoding="utf-8"?>
<!-- Generator: Adobe Illustrator 16.0.0, SVG Export Plug-In . SVG Version: 6.00 Build 0)  -->
<!DOCTYPE svg PUBLIC "-//W3C//DTD SVG 1.1//EN" "http://www.w3.org/Graphics/SVG/1.1/DTD/svg11.dtd">
<svg version="1.1" id="Layer_1" xmlns="http://www.w3.org/2000/svg" xmlns:xlink="http://www.w3.org/1999/xlink" x="0px" y="0px"
	 width="600px" height="400px" viewBox="0 0 600 400" enable-background="new 0 0 600 400" xml:space="preserve">
<path fill-rule="evenodd" clip-rule="evenodd" d="M154.917,273.234c4.701-1.02,9.403-2.043,14.69-3.191
	c0.412-1.287,0.974-3.396,1.767-5.416c0.721-1.84,0.688-4.502,4.216-3.406c1.489,0.463,2.879-3.492,2.029-5.633
	c-1.445-3.648-1.128-4.117,2.596-4.182c0.983,1.779,1.923,3.482,2.462,4.459c2.699-2.268,5.051-4.248,6.854-5.764
	c-0.995-1.287-2.328-3.016-4.303-5.576c4.896,0,8.499,0,12.671,0c-1.151-1.621-1.958-2.754-2.952-4.156
	c1.913-0.617,3.602-1.164,5.487-1.773c0.097,0.715,0.196,1.172,0.214,1.633c0.058,1.521-0.536,3.688,0.246,4.443
	c1.915,1.852,4.025,3.715,7.414,1.955c4.581-2.383,9.494-4.121,14.265-6.133c-0.294-0.279-0.588-0.557-0.883-0.834
	c-0.284-1.156-0.923-2.359-0.776-3.455c0.279-2.09,0.08-3.412-2.451-3.117l0.064,0.068c0.158-1.74,0.316-3.48,0.491-5.398
	c5.302,3.377,7.493,2.467,11.16-2.387c1.21-1.602,4.607-1.551,6.983-2.252c1.338,2.328,0.83,3.674-1.405,4.418
	c-0.807,0.268-1.575,0.652-2.355,0.998c-8.248,3.637-8.247,3.637-6.974,13.564c2.047-0.998,3.949-1.926,6.301-3.07
	c-1.395-0.986-2.478-1.752-3.348-2.367c1.155-1.094,2.216-2.104,3.602-3.418c0.353,0.186,1.269,0.668,2.42,1.275
	c0.39-1.346,0.742-2.555,1.154-3.977c1.952,0.129,3.83,0.254,6.203,0.412c-0.851-1.738-1.517-3.094-2.549-5.199
	c2.757-1.021,5.436-1.863,7.96-3.039c0.806-0.377,1.2-1.637,1.782-2.492l-0.125,0.127c1.554,0.115,3.109,0.23,4.968,0.371
	c-0.196-1.416-0.354-2.563-0.522-3.775c4.895-1.291,10.69,2.098,15.018-3.393c-1.443-0.371-2.506-0.643-3.969-1.02
	c2.012-2.059,3.36-3.38,6.577-2.143c6.066,2.336,11.138-0.51,15.828-4.842c0,1.662,0,3.111,0,5.156
	c8.792-3.871,17.308-7.62,26.577-11.701c-1.904-0.884-3.104-1.439-5.279-2.449c4.086-0.865,7.299-1.548,10.633-2.255
	c-0.211-1.407-0.389-2.594-0.566-3.781c4.719-0.855,4.754-0.825,5.898,5.299c2.672,0.273,5.908,0.073,5.967,4.134
	c0.016,1.041-0.119,2.19-0.557,3.113c-2.01,4.228-1.564,6.038,2.268,8.565c0.879,0.58,1.666,1.293,2.98,2.32
	c-4.68,1.66-3.26,4.752-2.576,7.643c0.508,2.143,1.129,4.258,1.607,6.406c1.061,4.762,3.381,7.979,8.504,9.455
	c3.01,0.867,5.598,3.404,8.16,5.457c0.666,0.533,0.986,2.234,0.674,3.117c-1.1,3.102-2.947,6.006-0.242,9.268
	c0.393,0.475-0.289,1.836-0.531,3.07c1.949,0.398,3.826,0.783,6.027,1.232c-0.439,2.084-0.945,4.055-1.256,6.059
	c-0.451,2.914-0.338,5.551,1.264,8.422c1.129,2.023,0.811,5.148,0.4,7.664c-0.494,3.047-1.424,5.76,0.947,8.613
	c0.715,0.861,0.102,3.244-0.492,4.686c-1.855,4.52-4.15,8.861-5.934,13.404c-0.678,1.74-0.426,3.846-0.633,6.156
	c0.982-0.395,1.34-0.428,1.406-0.584c4.463-10.451,10.744-20.348,8.539-32.65c-0.953-5.318-0.498-10.883-1.367-16.223
	c-0.76-4.67-2.693-9.133-3.713-13.775c-1.037-4.742-1.303-9.682-5.676-12.984c-0.445-0.334-0.061-1.77-0.061-2.922
	c-3.535-0.252-5.123-2.375-6.127-5.457c-0.629-1.928-2.322-3.498-3.018-5.418c-0.76-2.096-1.037-4.398-1.305-6.639
	c-0.193-1.637-0.037-3.318-0.037-5.483c0.428-0.144,1.527-0.508,3.084-1.028c-0.586-1.293-0.793-2.868-1.68-3.527
	c-4.4-3.267-8.057-6.691-4.617-13.281c-2.174,0.244-3.43,0.385-5.18,0.582c-1.41-4.084-2.832-8.205-4.26-12.326
	c-0.836-2.419-0.357-5.292-3.23-7.028c-0.826-0.499-0.428-3.026,0.248-4.845c0.82,1.113,1.641,2.227,2.484,3.372
	c1.75-2.312,1.9-4.795-0.055-7.975c-2.238-3.641-4.875-7.033-7.262-10.585c-0.912-1.358-1.613-2.86-1.938-4.572
	c-4.201-3.545-8.4-7.091-12.787-10.794c0.607-0.521,1.376-1.185,2.166-1.865c-0.109-0.194-0.168-0.476-0.307-0.522
	c-1.387-0.473-2.76-1.08-4.191-1.313c-2.122-0.345-2.775-1.397-3.332-3.515c-0.574-2.179-2.248-4.246-3.883-5.929
	c-2.803-2.88-6.156-5.229-8.91-8.149c-4.802-5.089-10.899-7.668-17.676-10.072c1.682-5.984-2.711-7.325-7.269-8.797
	c-3.067-0.99-5.964-2.507-8.785-4.667c1.336-0.203,2.672-0.406,4.733-0.719c-0.777-0.937-1.237-2.032-1.806-2.092
	c-10.389-1.09-18.879-7.048-28.145-10.965c-7.347-3.107-14.892-1.874-22.41-1.844c-0.36,0.001-0.794,0.028-1.069,0.22
	c-4.38,3.074-10,3.068-14.456,6.582c-3.757,2.963-9.032,4.004-13.878,5.996c-1.479-9.674-1.468-18.249,7.18-24.464
	c11.918-8.563,23.682-17.34,35.53-26.002c0.759-0.556,1.674-0.9,3.183-0.765c-1.178,1.622-2.356,3.244-3.534,4.865
	c0.221,0.219,0.443,0.438,0.666,0.656c1.621-1.751,3.073-3.709,4.903-5.203c2.677-2.184,5.39-5.161,8.503-5.815
	c9.785-2.058,19.728-3.635,29.686-4.486c4.865-0.416,9.918,1.088,14.859,1.902c7.48,1.232,14.888,3.086,22.413,3.825
	c9.533,0.936,16.558,6.918,24.513,11.011c12.996,6.686,25.037,14.858,36.285,24.197c1.969,1.634,4.092,3.085,6.148,4.625
	c-2.348,4.456-2.057,5.101,2.773,6.761c0.889,0.305,1.766,0.917,2.408,1.608c3.896,4.197,7.725,8.458,11.654,12.783
	c-1.791,1.52-4.092,2.663-7.16-0.701c0.732,8.079,8.287,8.143,11.939,12.851c-1.393-0.209-2.996-0.041-4.141-0.688
	c-7.574-4.275-15.133-8.648-20.65-15.619c-1.33-1.682-2.445-3.657-3.166-5.674c-1.533-4.301-1.766-4.668-6.957-5.764
	c0,3.659,0,7.253,0,10.993c-7.225-0.457-5.004,5.82-7.207,9.044c-2.08-1.521-2.197-3.333-1.029-5.627
	c4.129-8.103,4.096-8.138-3.918-12.077c-6.141-3.018-12.303-5.99-18.703-9.103c1.445-1.267,2.701-2.368,3.957-3.467
	c-0.143-0.267-0.287-0.533-0.43-0.8c-1.695,0.785-3.539,1.357-5.045,2.41c-1.641,1.15-2.971,2.747-5.117,4.798
	c0.736-3.833,1.285-6.688,1.832-9.535c-8.133-2.406-23.402,1.933-28.499,8.383c2.693,0.304,5.125,0.578,7.764,0.876
	c-0.594,1.694-1.11,3.169-1.738,4.961c2.643,0.731,5.178,1.768,7.795,2.055c2.398,0.262,4.885-0.286,7.578-0.497
	c-0.48,4.358-2.643,6.342-6.197,7.339c-2.884,0.808-5.655,2.027-8.856,3.204c1.268,3.29,2.304,5.979,3.479,9.029
	c3.622-0.612,7.166-1.21,10.507-1.774c0.246-0.596,0.449-0.836,0.41-1.029c-0.453-2.265-1.967-6.045-1.252-6.526
	c3.883-2.611,6.861-7.876,13.074-5.468c0.945,2.621,1.994,5.533,3.207,8.895c-3.234,0.406-6.084,0.738-8.928,1.13
	c-4.129,0.569-5.504,2.951-3.498,6.626c1.273,2.337,3.143,4.349,4.723,6.524c1.924,2.652,3.824,5.322,5.82,8.103
	c1.484-0.806,2.719-1.578,4.039-2.165c1.678-0.746,2.32-1.724,1.986-3.702c-0.225-1.344,0.451-2.839,0.826-4.8
	c6.998,7.583,6.998,7.583,4.064,11.266c4.92,2.965,9.803,5.91,14.639,8.825c-1.516,0.872-3.035,1.746-4.553,2.62
	c0.145,0.395,0.287,0.789,0.43,1.184c3.1,0.85,6.307,1.534,9.16-0.779c2.748-2.229,5.037-1.782,6.809,0.875
	c2.676,4.014,5.578,8.008,7.424,12.414c2.67,6.366,11.293,8.18,17.104,2.681c-1.787-1.13-3.369-2.506-5.207-3.209
	c-2.883-1.1-3.428-2.961-3.096-5.762c0.445-3.748,1.055-7.601,0.635-11.302c-0.789-6.982,2.936-12.333,5.963-18.071
	c-0.881,5.055-1.4,10.207-2.74,15.138c-1.402,5.165,0.234,8.954,3.963,12.515c3.1-2.363,6.193-4.721,9.43-7.188
	c0.947,1.034,1.83,1.997,3.215,3.509c0.17-3.712,0.316-6.879,0.463-10.031c-4.201-0.574-4.527-1.168-4.41-8.568
	c1.107,1.549,1.814,2.537,2.656,3.714c0.742-0.367,1.518-0.75,2.914-1.44c-0.24,1.842-0.404,3.092-0.584,4.484
	c1.256,0.531,2.639,0.937,3.822,1.666c1.115,0.686,2.018,1.715,3.59,3.101c-1.404-4.657-2.598-8.625-3.793-12.595
	c0.295-0.141,0.588-0.284,0.881-0.426c0.992,0.929,1.984,1.86,3.588,3.361c-1.002-7.902-10.725-12.147-6.633-20.789
	c-5.428-3.492-10.629-6.839-16.637-10.703c3.313,3.374,5.945,6.057,8.52,8.677c-2.4,3.357-2.4,3.357,1.855,8.82
	c-0.195,0.271-0.389,0.543-0.582,0.814c-1.639-1.268-3.699-2.239-4.842-3.858c-4.082-5.782-7.734-11.868-11.787-17.671
	c-2.264-3.241-2.582-6.402-0.326-9.493c3.734-5.123,7.596-10.174,11.74-14.962c0.904-1.045,3.332-1.42,4.881-1.135
	c4.855,0.894,8.801,3.646,11.941,7.387c2.701,3.214,5.758,5.17,10.16,4.603c2.82-0.363,4.578,1.269,4.717,3.953
	c0.385,7.536,4.859,11.463,11.541,13.367c2.51,0.716,3.619,2.16,3.186,4.487c-0.529,2.846-1.182,5.749-2.342,8.381
	c-3.443,7.814-7.316,15.338-8.119,24.175c-0.395,4.3-3.066,8.393-4.814,12.857c-1.293-0.782-2.293-1.389-3.512-2.126
	c-0.422,1.083-0.832,2.138-1.262,3.243c-0.865-0.54-1.65-1.03-2.648-1.655c-0.381,1.414-0.691,2.575-1.063,3.95
	c-1.213-0.657-2.346-1.272-3.492-1.894c-3.014,3.129,0.273,4.34,2.125,6.249c-5.395,0.214-6.406-4.8-10.262-6.687
	c1.311,3.625,2.494,7.307,4.041,10.829c0.303,0.692,2,1.023,3.068,1.058c1.148,0.038,2.313-0.471,3.635-0.781
	c0.262-1.059,0.541-2.203,1.049-4.251c1.113,1.274,2.051,1.933,2.404,2.824c1.525,3.861,2.799,7.824,4.346,11.677
	c0.51,1.272,1.564,2.324,2.367,3.477c0.371-0.231,0.74-0.463,1.109-0.697c-1.326-3.706-2.652-7.413-3.996-11.158
	c3.367-1.195,5.088,0.463,6.51,2.889c4.656,7.929,7.115,16.643,8.563,25.59c1.363,8.423,2.064,16.953,3.066,25.433
	c0.129,1.092,0.164,2.22,0.477,3.262c1.836,6.09,1.336,12.039-0.645,18.02c-0.564,1.695-0.318,3.656-0.445,5.496
	c0.357,0.125,0.715,0.25,1.074,0.371c0.973-1.08,1.947-2.166,2.969-3.297c3.059,4.895,2.959,9.709-0.645,15.602
	c-0.883-1.668-1.602-3.031-2.322-4.391c-0.533,0.334-1.07,0.666-1.604,1c0.656,1.852,0.953,3.955,2.041,5.504
	c2.488,3.551,2.646,3.439,0.596,8.021c-0.457-1.244-0.801-2.172-1.371-3.723c-2.703,10.141-5.264,19.752-8.09,30.352
	c-0.582-1.699-0.676-2.535-1.107-3.131c-1.238-1.705-2.746-1.514-3.115,0.434c-0.779,4.139-4.168,7.961-1.703,12.572
	c0.193,0.363-0.178,1.172-0.486,1.641c-6.988,10.613-13.318,21.723-22.947,30.352c-2.861,2.563-5.66,4.998-9.813,5.209
	c-1.049,0.055-2.125,1.043-3.049,1.779c-3.43,2.736-6.516,6.035-10.252,8.244c-11.463,6.781-23.707,5.326-35.957,2.564
	c-0.473-0.107-0.926-0.305-1.391-0.461c-15.896-5.313-9.961-5.803-24.967,2.457c-21.889,12.049-43.829,24.199-67.817,31.328
	c-15.5,4.604-31.708,7.17-47.768,9.447c-12.546,1.779-25.364,2.434-38.045,2.268c-14.928-0.199-28.918-4.879-42.648-10.9
	c-17.884-7.85-31.509-21.338-46.6-32.92c-1.943-1.488-3.805-3.086-5.756-4.564c-2.966-2.248-4.643-1.938-6.602,1.133
	c-3.243,5.08-3.243,5.078-9.156,4.068c-0.241-0.039-0.487-0.045-0.731-0.057c-6.179-0.313-6.179-0.313-6.172-6.42
	c0.011-8.176,0.748-9.012,11.352-12.426c-1.34-8.16-0.128-16.813-3.657-23.809c0.086-2.154,0.205-3.443,0.173-4.732
	c-0.068-2.836-0.743-5.783-0.187-8.479c0.659-3.193,0.466-5.34-2.063-7.818c-1.84-1.801-2.361-4.947-3.47-7.496
	c0.365-0.23,0.73-0.459,1.094-0.689c0.665,0.443,1.329,0.889,2.302,1.545c0.134-1.189,0.249-2.193,0.377-3.332
	c-0.772-0.232-1.414-0.285-1.877-0.596c-0.983-0.664-2.533-1.373-2.651-2.229c-0.186-1.34,0.522-2.855,1.034-4.23
	c0.501-1.346,1.748-2.594,1.781-3.904c0.319-12.746,1.998-25.049,5.888-37.43c5.068-16.122,12.074-31.001,21.994-44.457
	c7.313-9.917,15.446-19.135,24.54-27.673c12.987-12.193,26.354-23.761,41.278-33.462c2.3-1.496,5.278-1.949,7.94-2.891
	c4.146-1.467,8.259-3.038,12.456-4.343c1.094-0.341,2.723-0.279,3.629,0.32c4.842,3.2,9.478,2.288,14.21-0.158
	c2.421-1.251,4.942-2.31,7.418-3.457c0.262,0.336,0.524,0.673,0.785,1.01c-1.004,1.266-2.01,2.532-3.015,3.797
	c2.613-0.971,6.717,1.218,7.625-3.481c3.768,0.471,7.713,0.965,11.994,1.5c-0.667,1.503-1.323,2.989-2.168,4.897
	c4.199,0.379,8.142,0.735,12.402,1.12c0,4.067,0,8.066,0,11.917c9.047,3.948,12.277,2.734,14.612-5.6
	c2.618,0.932,5.297,1.678,7.789,2.832c2.742,1.269,1.209,3.394,0.331,4.932c-0.607,1.064-1.993,1.709-3.083,2.466
	c-7.027,4.88-14.084,9.715-21.083,14.633c-0.868,0.608-1.615,1.526-2.139,2.459c-2.033,3.604-2.242,3.682-5.917,1.133
	c-1.762,2.121-3.117,5.18-5.396,6.224c-7.09,3.252-11.172,11.351-19.851,12.003c-1.414,0.105-3.225,1.492-3.961,2.792
	c-2.195,3.869-3.946,7.991-6.659,11.785c-0.339-1.382-0.679-2.765-1.026-4.175c-6.547,4.22-7.125,5.66-5.267,12.976
	c0.391,1.54,0.619,3.145,1.209,4.605c1.208,2.981,0.708,5.187-2.417,6.486c0.256-1.501,0.513-3.001,0.803-4.699
	c-2.607-0.638-4.811-1.177-7.882-1.928c1.791,2.662,2.857,4.583,4.286,6.183c0.484,0.542,1.883,0.267,2.864,0.364
	c-0.188,1.415,0.104,3.623-0.659,4.084c-1.749,1.06-4.014,1.267-6.069,1.82c-0.104-0.344-0.208-0.688-0.312-1.033
	c0.616-1.15,1.232-2.301,2.006-3.749c-2.743-0.586-5.176-1.106-8.068-1.725c0.335,2.522,0.62,4.655,0.897,6.782
	c-4.658-0.336-5.424,0.188-5.83,4.025c3.379,0.662,4.282-2.109,5.734-4.111c0.81,0.205,1.635,0.367,2.428,0.627
	c3.173,1.04,6.336,2.111,9.781,3.265c-0.619,1.384-1.543,3.452-2.469,5.522c-0.359,0.033-0.718,0.064-1.077,0.098
	c-0.365-1.682-0.73-3.365-1.087-5.012c-5.355,3.01-6.438,4.689-4.313,7.232c0.431-1.037,0.813-1.955,1.295-3.119
	c4.012,4.146,7.207,9.424,14.638,7.344c-0.919,1.959-1.673,3.32-2.202,4.762c-0.455,1.24-1.334,2.977-0.849,3.799
	c2.397,4.082-1.187,5.818-2.8,8.539c-1.604-0.832-3.075-1.598-5.042-2.621c-0.211,2.729-0.392,5.064-0.576,7.436
	c1.988-0.789,3.711-1.473,5.4-2.141c0.389,0.799,0.602,1.027,0.574,1.215c-0.321,2.201-9.52,12.559-11.649,12.869
	c-4.102,0.596-6.458,2.273-7.077,6.9c-0.309,2.313-2.912,4.447-4.767,6.385c-1.125,1.176-2.804,1.822-4.705,2.998
	c1.687,1.352,2.957,2.375,4.147,3.328c0,2.689,0.333,5.391-0.144,7.941c-0.229,1.232-1.856,2.898-3.068,3.107
	c-2.708,0.471-5.553,0.148-9.106,0.148c2.287-4.115,4.317-7.768,6.192-11.137c-2.091-1.348-4.544-2.926-7.403-4.766
	c-2.16,2.434-4.558,5.137-7.455,8.4c2.807,0.816,4.842,1.41,6.803,1.979c-4.173,4.965-5.089,4.715-10.396,1.047
	c-2.721-1.879-6.514-2.264-9.869-3.143c-1.383-0.361-2.892-0.238-4.581-0.35c0-3.111,0-6.123,0-9.773
	c4.207,2.275,8.104,4.385,12.002,6.492c2.709-5.609,2.245-7.361-2.463-8.938c-0.593,1.217-1.198,2.457-1.804,3.697
	c-0.242-0.021-0.485-0.039-0.729-0.061c-0.369-2.932-0.739-5.863-1.155-9.168c-2.975,2.037-6.756,2.729-5.94,7.344
	c-2.921,0.957-5.682,1.863-8.6,2.824c0.295,1.684,0.564,3.219,0.862,4.922c-0.908,0.205-1.755,0.393-3.633,0.813
	c2.741,1.668,4.717,2.869,7.446,4.529c-2.937,0-5.007,0-7.049,0c1.042,2.848,1.929,5.809,3.187,8.6
	c2.585,5.736,0.973,11.398,0.142,17.131c-0.157,1.084,0.422,2.758,1.252,3.424c4.52,3.617,8.458,8.064,14.885,8.785
	c3.897,0.438,6.717,3.41,7.522,7.227c1.098,5.195,4.647,8.129,8.497,11.014c3.811,2.857,7.615,5.723,11.396,8.619
	c2.283,1.748,4.53,2.783,7.706,2.525c2.456-0.199,5.424,0.756,7.479,2.184c2.122,1.475,3.802,2.082,6.272,1.371
	c2.314-0.666,4.766-0.855,7.157-1.256c0.094,0.332,0.188,0.664,0.282,0.998c-2.271,0.51-4.542,1.023-6.812,1.533
	c-0.076,0.43-0.15,0.859-0.225,1.291c1.485,0.324,3.091,1.182,4.436,0.881c4.99-1.125,9.896-2.627,15.137-4.072
	c0.035-0.773,0.081-1.797,0.117-2.605c3.884,0,7.857-0.584,11.574,0.143c4.851,0.951,6.25,1.025,9.055-3.027
	c1.692-2.445,2.87-3.5,4.921-0.236c1.604,2.549,4.742,2.697,6.327,0.65c2.629-3.391,4.622-2.553,6.955-0.098
	c2.62-4.221,2.62-4.221,7.867-2.016c-0.093,0.914-0.19,1.861-0.313,3.063c0.824,0.199,1.669,0.678,2.38,0.527
	c6.072-1.293,12.167-2.545,18.135-4.227c1.037-0.291,1.518-2.553,2.647-4.627c-2.266,0.246-3.207,0.35-4.46,0.484
	c0.043-0.936,0.083-1.807,0.127-2.727c-0.918-0.164-1.841-0.33-3.45-0.617c1.832-2.348,3.198-4.494,4.953-6.252
	c2.481-2.488,4.96-0.553,8.08,0.539c-3.319,1.57-6.113,2.896-8.908,4.219c0.083,0.324,0.167,0.646,0.25,0.969
	c4.166-0.066,8.994-2.656,12.301,2.645c1.903-2.488,4.082-5.332,6.551-8.559c-1.747,0-2.985,0-3.896,0
	c3.903-10.613,13.803-13.205,22.949-16.881c4.155-1.668,8.241-3.504,12.41-5.285c0.329,0.842,0.793,2.027,1.47,3.76
	c1.736-2.758,2.432-6.561,6.725-4.459c0,0.938,0,1.979,0,2.971c-9.151,1.98-11.285,6.357-6.852,14.084
	c3.609-2.291,7.21-4.58,10.812-6.871c0.047,0.361,0.091,0.721,0.137,1.08c2.318-0.125,4.691,0.018,6.938-0.445
	c2.248-0.467,4.328-1.703,6.563-2.301c1.902-0.508,4.002-3.102,5.855,0.137c3.783-1.887,7.135,3.754,11.326,0.426
	c1.598-1.271,4.85-0.246,6.881-1.23c5.959-2.887,8.305-8.693,10.438-14.473c1.055-2.854,1.803-5.822,2.688-8.742
	c0.141-0.463,0.52-1.09,0.35-1.377c-2.637-4.383,0.732-8.279,0.949-12.607c-2.113-0.873-4.299-1.777-6.488-2.682
	c0.371-0.154,0.74-0.305,1.111-0.451c-0.234-2.707-0.42-5.42-0.729-8.117c-0.096-0.828-0.566-1.611-0.797-2.432
	c-1.518-5.393-2.961-10.852-11.129-8.426c-0.275-0.646-0.551-1.293-0.826-1.939c1.811-0.918,3.621-1.832,5.559-2.813
	c-2.354-2.996-4.225-5.398-6.119-7.785c-1.715-2.152-2.494-4.428-3.213-7.221c-0.969-3.762-2.855-7.023-2.225-11.316
	c0.205-1.4-2.594-3.322-4.141-4.883c-3.09-3.111-4.564-6.613-3.379-11.352c-3.559,3.227-7.016,6.574-10.723,9.621
	c-1.508,1.24-3.635,1.693-5.346,2.727c-2.537,1.529-5.438,2.863-7.238,5.057c-1.03,1.254-0.187,4.047-0.187,6.559
	c0.016-0.002-0.691,0.287-1.295,0.143c-2.845-0.682-4.317,0.283-5.007,3.213c-0.25,1.064-1.698,2.08-2.834,2.652
	c-2.054,1.035-4.376,1.549-6.399,2.629c-0.961,0.514-2.196,1.91-2.102,2.773c0.48,4.428-2.946,5.32-5.729,6.215
	c-6.334,2.035-7.278,7.75-9.893,12.355c0.24,0.295,0.48,0.59,0.72,0.885c1.341-0.738,2.683-1.479,4.023-2.215
	c0.222,0.365,0.442,0.734,0.664,1.102c-1.821,1.059-3.56,2.611-5.501,2.93c-0.767,0.125-1.983-2.5-3.438-4.475
	c-1.268,0.113-3.267,0.295-5.638,0.51c0.66-2.004,1.236-3.762,2.033-6.191c-4.708,3.127-8.821,5.857-13.24,8.791
	c0.11,0.217,0.632,1.252,1.262,2.498c-0.958,0.428-1.891,0.846-2.917,1.305c0,1.072,0,2.123,0,3.234
	c-3.983,0.195-7.789,0.383-12.193,0.598c-0.03,0.121-0.325,1.234-0.714,2.713c-1.539-0.371-3.021-0.73-5.698-1.377
	c3.407-2.865,6.172-5.186,9.684-8.139c-2.883-0.426-4.514-0.818-6.153-0.84c-0.858-0.014-2.448,0.566-2.477,0.969
	c-0.263,3.664-2.934,5.285-6.643,7.092c2.271,0.709,3.552,1.109,4.833,1.512c-1.446,3.355-3.466,5.438-7.519,3.787
	c-0.797-0.324-2.167-0.242-2.824,0.25c-4.815,3.609-9.791,1.078-14.647,0.422c-2.255-0.305-3.853-0.199-5.526,1.568
	c-1.175,1.24-3.171,1.66-4.615,2.701c-2.292,1.656-4.216,4.49-6.693,5.043c-2.728,0.604-5.498,0-7.892,2.395
	c-3.196,3.197-7.236,4.15-11.467,2.066c-4.465-2.199-8.47-1.443-12.459,1.135c-1.992,1.291-4.156,2.311-6.73,3.723
	c0.009-4.539,3.047-4.057,5.707-4.627c-0.598-2.496-1.175-4.902-1.844-7.691c1.472,0.285,2.605,0.594,3.759,0.713
	c3.417,0.35,7.137,1.484,7.555-4.154c0.08-1.084,2.342-2.27,3.811-2.934c4.404-1.99,4.623-2.811,1.51-6.051
	c-2.271,1.061-4.384,2.096-6.538,3.041c-2.573,1.127-3.369-0.08-3.138-2.512L154.917,273.234z M372.955,248.82
	c0.375-2.215,0.684-4.133,1.027-6.047c0.361-2.002,0.76-3.998,1.207-6.342c-1.977,0.4-3.689,0.748-5.564,1.127
	c1.047-3.049,2-5.83,2.883-8.404c1.49-1.389,3.117-2.906,5.502-5.133c3.316-0.207,3.873,0.453,4.451,7.01
	c-0.318,0.109-0.648,0.273-0.992,0.33c-4.678,0.748-4.658,0.736-3.158,5.045c0.186,0.533-0.094,1.209-0.045,1.807
	c0.188,2.377,0.182,4.805,0.699,7.113c0.771,3.449,1.924,6.813,3.094,10.828c-5.113-2.158-9.473-3.996-14.092-5.949
	c-0.988,2.383-1.848,4.449-2.746,6.613c3.117,1.779,5.9,3.365,8.615,4.912c-1.805,1.373-3.389,2.576-4.973,3.779
	c0.225,0.467,0.447,0.934,0.672,1.396c2.676-0.58,5.352-1.166,8.309-1.811c-0.113,1.859-0.205,3.371-0.305,5.002
	c-2.432-0.445-4.482-0.816-6.531-1.191c-0.207,0.338-0.414,0.678-0.623,1.018c1.338,1.164,2.787,2.225,3.988,3.518
	c2.693,2.887,5.611,4.195,9.48,2.266c0.91-0.457,2.289-0.672,3.193-0.32c5.334,2.053,8.254-0.977,11.018-4.91
	c-6.518-2.127-12.928-4.223-19.373-6.328c2.848-6.57,7.049-11.734,12.24-16.16c4.012-3.422,4.123-5.994,0.516-9.877
	c-2.959-3.184-3.008-5.357-0.031-8.484c1.408-1.477,2.996-2.785,4.18-3.873c4.74,2.51,9.07,4.807,13.652,7.232
	c-1.096,1.152-1.814,1.912-2.613,2.752c0.723,1.625,1.398,3.146,2.102,4.73c6.131-4.516,6.924-8.83,2.289-14.428
	c-2.875-3.473-3.676-6.953-2.451-11.189c1.287-4.457,2.443-8.959,3.451-13.49c0.219-0.979-0.441-2.153-0.697-3.237
	c-0.975,0.678-2.264,1.161-2.85,2.085c-0.756,1.189-0.988,2.724-1.375,4.13c-0.777,2.82-1.584,5.639-2.234,8.489
	c-0.572,2.519-0.949,5.079-1.387,7.479c-1.959,1.104-4.158,2.344-6.355,3.582c0.699-4.057,1.906-7.863,3.676-11.391
	c2.232-4.443,0.777-8.309-3.902-9.664c-2.492-0.719-5.969,0.468-7.066-3.39c-0.074-0.257-1.596-0.301-2.367-0.116
	c-1.537,0.367-3.023,0.961-4.529,1.462c-7.691,2.563-9.055,5.339-6.135,13.019c-1.262-0.105-2.383-0.201-3.439-0.293
	c-0.121-1.586-0.213-2.781-0.314-4.103c-1.283,0.183-2.414,0.343-3.643,0.515c0.576-3.066,1.373-5.8,1.471-8.558
	c0.037-1.079-1.283-2.855-2.35-3.208c-4.863-1.609-6.443-0.424-8.479,5.142c-1.891,0-3.494,0-5.109,0
	c-0.6-2.245-1.273-4.758-1.945-7.269c-0.363-0.078-0.727-0.155-1.092-0.233c-0.922,1.454-1.844,2.908-2.92,4.603
	c1.465,0.111,2.354,0.179,3.326,0.252c-2.412,6.704,1.295,11.621,7.908,11.019c2.539-0.232,5.094-0.309,7.813-0.463
	c-0.207,3.23-1.766,4.668-4.674,4.672c-1.1,0-2.197-0.186-3.297-0.189c-3.646-0.008-4.5,0.984-4.084,4.602
	c0.17,1.49,0.287,2.986,0.475,4.953c-2.703-1.166-4.785-2.066-7.225-3.123c-0.545,2.686-3.918,4.305-1.232,7.172
	c2.906,3.107,5.545,0.881,8.34-0.654c0.109,0.924,0.135,2.383,0.303,2.398c3.979,0.387,3.438,4.189,4.932,6.709
	c2.586-1.684,5.479-1.756,6.424,1.096c1.01,3.041,0.656,6.535,0.91,9.971C370.25,248.82,371.443,248.82,372.955,248.82z
	 M374.451,157.633c-2.648-1.018-4.654-2.902-7.475-1.097c-0.594,0.381-1.93,0.074-2.686-0.344c-3.287-1.817-6.549-3.693-9.682-5.755
	c-1.26-0.829-2.193-2.168-3.225-3.317c-1.016-1.126-2.371-3.439-2.881-3.259c-1.887,0.667-3.924,1.826-5.086,3.404
	c-1.418,1.929-0.281,4.49-0.313,6.663c-0.063,4.314,2.172,6.552,4.676,8.992c2.104,2.048,4.416,3.878,6.605,5.833
	c3.098,2.768,2.666,5.428-1.396,6.528c-2.053,0.557-4.514,0.325-6.621-0.213c-2.412-0.615-4.635-1.965-7.209-3.115
	c-0.16,1.154-0.385,1.865-0.322,2.551c0.086,0.961,0.105,2.115,0.637,2.825c3.395,4.537,6.922,8.976,10.203,13.189
	c9.645-2.686,11.771-12.953,18.963-18.664c0.455,3.642-1.594,5.573-3.533,7.555c-4.164,4.256-4.133,4.687,0.609,8.138
	c-0.908,1.462-1.814,2.924-3.232,5.204c3.576-1.341,6.094-2.888,8.719-3.104c2.686-0.219,5.338,1.074,6.773,4.327
	c-3.049-0.379-5.74-0.716-8.803-1.099c2.102,3.775,4.023,4.207,18.885,4.688c-3.168-5.282-2.402-10.838-2.008-16.477
	c0.477-6.795,0.463-13.633,0.434-20.452c-0.02-4.608-2.354-5.933-6.893-4.08c0.473,0.82,0.934,1.623,1.395,2.425
	c-0.449-0.406-0.9-0.812-1.352-1.217c-2.895,3.681-5.785,7.362-8.68,11.044c-0.219-0.172-0.439-0.344-0.66-0.516
	C371.611,164.914,372.926,161.539,374.451,157.633z M258.961,54.66c-0.082,0.25-0.165,0.499-0.247,0.748
	c3.022,2.256,5.788,5.725,9.14,6.437c3.557,0.758,7.673-1.102,11.595-1.828c0.348,1.317,0.337,3.45,1.379,4.709
	c1.416,1.706,3.696,3.919,5.502,3.829c4.092-0.203,7.764-8.314,5.842-11.953c-0.326-0.617-1.345-1.184-2.071-1.219
	c-3.593-0.177-7.248-0.591-10.777-0.126c-5.54,0.729-6.221,0.711-8.666-4.163c-1.483-2.956-3.416-4.241-6.761-2.8
	c-2.798,1.207-5.792,1.965-8.574,3.205c-1.068,0.477-1.792,1.736-2.671,2.639c0.199,0.321,0.401,0.642,0.603,0.963
	C255.157,54.953,257.059,54.807,258.961,54.66z M393.738,173.779c0.426-3.511,0.691-5.693,1.031-8.472
	c-6.275,6.008-6.275,8.748-0.447,14.885c2.389-1.285,4.818-2.594,7.168-3.861c2.354,3.869,3.475,7.616,0.174,11.504
	c2.324,0.867,4.064,1.516,5.771,2.152c-0.859-3.076-1.932-5.769-2.287-8.552c-0.301-2.344,0.578-4.83,0.334-7.191
	c-0.584-5.584-1.482-11.138-2.352-16.689c-0.188-1.182-0.799-2.297-1.213-3.442c-0.518-0.042-1.037-0.082-1.553-0.124
	c-0.918,3.118-2.025,6.194-2.693,9.366c-0.559,2.667-0.461,5.47-0.973,8.153C396.568,172.204,395.242,172.672,393.738,173.779z
	 M392.613,262c0.42,0.113,0.854,0.324,1.291,0.332c3.242,0.064,6.533,0.006,7.432,4.199c0.887-0.225,2.385-0.219,2.566-0.707
	c2.436-6.535,4.451-13.195,3.115-20.297c-0.195-1.039-0.941-2.404-1.809-2.805c-3.516-1.633-7.789,0.711-7.85,4.566
	c-0.08,5.213-1.613,9.734-4.646,13.859C392.594,261.311,392.654,261.602,392.613,262z M256.18,36.821c0,1.916,0,3.424,0,5.238
	c1.865-0.338,3.402-0.674,4.957-0.882c1.566-0.209,3.148-0.292,5.556-0.502c-1.923,1.691-3.063,2.692-4.497,3.952
	c9.319,2.728,10.766,2.317,16.169-4.326C271.427,36.185,264.189,34.648,256.18,36.821z M280.958,88.281
	c1.427-2.801,2.813-4.992,3.688-7.371c1.178-3.2-0.281-5.719-2.91-7.546c-2.605-1.81-4.48-0.699-6.046,1.679
	c-0.592,0.899-1.497,1.602-2.293,2.359c-1.781,1.695-1.834,3.337,0.124,4.919C275.876,84.224,278.244,86.107,280.958,88.281z
	 M249.61,35.289c-0.284-0.351-0.569-0.702-0.853-1.052c-6.725,2.459-13.448,4.919-20.17,7.379c-0.009,0.483-0.019,0.968-0.027,1.451
	c2.481,0.454,5.081,1.582,7.414,1.179c2.52-0.434,3.875,0.013,5.06,2.069c0.435,0.753,1.171,1.332,2.016,2.259
	C245.359,43.896,247.485,39.592,249.61,35.289z M304.967,41.567c-5.361-1.213-10.405-2.603-15.542-3.385
	c-1.812-0.275-3.902,0.794-5.755,1.531c-0.723,0.288-1.139,1.347-1.694,2.055c0.716,0.493,1.371,1.262,2.156,1.434
	c5.791,1.272,11.609,2.426,16.371,3.403C302.18,44.711,303.363,43.376,304.967,41.567z M302.463,56.968
	c8.529,2.981,22.389,5.238,24.293,4.013C317.191,53.148,307.702,51.486,302.463,56.968z M376.535,288.549
	c-1.857-2.082-3.615-4.055-5.475-6.137c1.48-1.727,2.916-3.4,4.602-5.365c-1.764-0.176-2.928-0.078-3.939-0.426
	c-3.949-1.367-5.518-0.541-6.313,4.078c-0.721,4.197,2.127,5.418,3.914,7.508C371.174,290.371,373.738,290.439,376.535,288.549z
	 M362.303,79.551c-3.818-2.811-7.164-5.33-10.568-7.768c-3.953-2.832-7.912-5.664-11.959-8.359
	c-2.303-1.532-4.838-1.881-8.604-0.283c6.199,2.869,11.469,5.307,16.859,7.803c-0.238,0.632-0.656,1.736-1.191,3.147
	C352.623,73.949,355.689,80.655,362.303,79.551z M426.004,250.928c3.592-2.355,6.787-9.561,5.93-12.785
	c-0.723-2.727-2.502-4.256-5.777-4.406C426.977,239.463,422.85,244.9,426.004,250.928z M136.67,254.654
	c0.153,0.496,0.307,0.992,0.459,1.488c2.481-0.139,5.221,0.322,7.364-0.598c1.901-0.822,3.544-2.977,4.537-4.928
	c0.782-1.535,0.4-3.666,0.577-6.125c-0.469-0.236-1.706-0.859-2.246-1.133c-1.869,1.375-3.237,2.379-4.925,3.625
	c1.743,0.592,2.844,0.969,4.005,1.363C143.062,250.527,139.866,252.588,136.67,254.654z M427.297,196.273
	c-2.992,1.386-2.326,4.005-2.273,6.162c0.131,5.477,0.541,10.948,0.814,15.94C430.777,214.102,431.924,202.65,427.297,196.273z
	 M407.398,285.449c-4.326-0.74-7.734-1.525-11.182-1.787c-0.947-0.072-2.014,1.414-3.025,2.184c0.92,0.725,1.75,1.656,2.789,2.102
	c0.797,0.342,1.857,0.066,2.816,0.066c-0.094,1.213-0.176,2.311-0.334,4.436C401.738,289.881,404.223,287.934,407.398,285.449z
	 M412.754,274.801c2.465,2.49,4.145,2.16,5.441-0.502c0.85-1.746,1.672-3.51,2.572-5.232c1.258-2.398,0.705-4.283-1.504-6.08
	C417.023,267.055,414.912,270.885,412.754,274.801z M120.227,238.879c0.629,2.699,1.094,4.963,1.713,7.186
	c0.164,0.584,0.779,1.42,1.233,1.447c0.516,0.035,1.338-0.588,1.584-1.125c1.088-2.393,2.017-4.857,3.089-7.508
	C125.135,238.879,122.955,238.879,120.227,238.879z M132.952,209.721c-2.369,1.826-4.504,3.471-6.842,5.271
	c1.415,1.004,3.038,2.154,4.793,3.4C132.868,215.479,136.411,213.24,132.952,209.721z M131.753,228.664
	c-0.04-0.389-0.078-0.779-0.117-1.166c-2.491-0.723-4.983-1.443-7.856-2.277c-0.212,2.518-0.382,4.523-0.607,7.195
	C126.388,231.012,129.071,229.836,131.753,228.664z M426.605,191.923c4.502-4.352,3.738-7.78-1.889-10.191
	C425.33,185.03,425.918,188.208,426.605,191.923z M321.539,202.838c-1.225,0-2.479,0-3.967,0c0.176-0.671,0.363-1.211,0.449-1.765
	c0.082-0.542,0.063-1.1,0.092-1.743c-3.508,1.068-3.508,1.068-2.08,6.797C319.24,207.465,321.195,206.602,321.539,202.838z
	 M265.401,81.911c-0.272-0.026-0.543-0.052-0.815-0.077c-0.438,1.692-1.313,3.416-1.194,5.069c0.12,1.667,1.033,3.394,2.004,4.82
	c0.327,0.482,1.89,0.125,2.889,0.151c-0.303-0.75-0.601-1.502-0.91-2.25c-0.533-1.292-1.215-2.542-1.565-3.88
	C265.489,84.514,265.524,83.192,265.401,81.911z M101.487,253.877c1.604-0.447,3.171-0.564,4.326-1.316
	c0.886-0.574,1.253-1.949,1.851-2.967c-0.851-0.434-1.693-1.213-2.555-1.234C101.75,248.27,100.911,249.576,101.487,253.877z
	 M294.7,223.244c-0.137-0.451-0.272-0.9-0.409-1.354c-2.976,0.318-5.951,0.635-9.267,0.988c0.63,1.463,1.138,2.646,1.733,4.029
	C289.581,225.604,292.141,224.422,294.7,223.244z M155.105,184.43c-0.438-0.143-0.876-0.287-1.314-0.43
	c-0.655,1.507-1.809,3.007-1.829,4.522c-0.02,1.585,0.064,4.036,3.143,3.852C155.105,189.562,155.105,186.995,155.105,184.43z
	 M288.568,102.733c-0.453,0.03-0.907,0.063-1.359,0.093c0.189,3.036,0.377,6.072,0.606,9.714c1.316-0.897,3.151-1.722,3.063-2.16
	C290.355,107.78,289.388,105.272,288.568,102.733z M114.229,261.045c-1.749-1.498-2.972-2.541-4.434-3.793
	c-0.931,2.082-1.68,3.754-2.756,6.158C109.728,262.527,111.624,261.902,114.229,261.045z M335.996,143.641
	c-0.961-1.378-1.871-2.687-2.447-3.516c-1.74,1.36-3.354,2.622-5.664,4.428C331.242,144.175,333.525,143.918,335.996,143.641z
	 M335.078,151.945c-2.029,1.685-3.602,2.988-5.545,4.602c2.146,0.874,3.709,1.512,5.545,2.259
	C335.078,156.345,335.078,154.485,335.078,151.945z M370.369,304.727c-3.939-3.107-4.104,0.252-5.148,1.396
	c-0.432,0.479-0.197,1.561-0.266,2.369C366.59,307.355,368.223,306.219,370.369,304.727z"/>
</svg>
